# xmcd
#
# Track frame offsets: 
#        150
#        16133
#        31400
#        46505
#        60711
#        72782
#        92446
#        110545
#        124956
#
# Disc length: 1887 seconds
#
# Revision: 0
# Processed by: cddbd v1.5.2PL0 Copyright (c) Steve Scherf et al.
# Submitted via: ExactAudioCopy v1.0b3
#
DISCID=6a075d09
DTITLE=Eloise Laws - All In Time
DYEAR=1982
DGENRE=Funk
TTITLE0=Love Ain't Easy
TTITLE1=I Got Ya Covered
TTITLE2=I've Loved You Somewhere Before
TTITLE3=If I Had My Way
TTITLE4=While The City Sleeps
TTITLE5=I've Got The Rhythm, You've Got The Blues
TTITLE6=I Did It For Your Love
TTITLE7=If You Don't Love Me By Now
TTITLE8=Weekend
EXTD=
EXTT0=
EXTT1=
EXTT2=
EXTT3=
EXTT4=
EXTT5=
EXTT6=
EXTT7=
EXTT8=
PLAYORDER=
